<svg width="50" height="50" viewBox="0 0 50 50" fill="none" xmlns="http://www.w3.org/2000/svg">
<rect x="0.5" y="0.5" width="49" height="49" rx="24.5" fill="#FEFEFE" stroke="#EBF2F3"/>
<path d="M17.5 18.25H19.75V20.5H28.75V18.25H31V24.25H32.5V18.25C32.5 17.425 31.825 16.75 31 16.75H28.75V16C28.75 15.175 28.075 14.5 27.25 14.5H21.25C20.425 14.5 19.75 15.175 19.75 16V16.75H17.5C16.675 16.75 16 17.425 16 18.25V34C16 34.825 16.675 35.5 17.5 35.5H20.5V34H17.5V18.25ZM21.25 16H27.25V19H21.25V16ZM30.5605 26.5L29.5 27.5605L31.4395 29.5H25.75C24.0955 29.5 22.75 30.8455 22.75 32.5C22.75 34.1545 24.0955 35.5 25.75 35.5H27.25V34H25.75C24.9235 34 24.25 33.3272 24.25 32.5C24.25 31.6728 24.9235 31 25.75 31H31.4395L29.5 32.9395L30.5605 34L34.3105 30.25L30.5605 26.5Z" fill="black"/>
</svg>
