<svg width="15" height="15" viewBox="0 0 15 15" fill="none" xmlns="http://www.w3.org/2000/svg">
<path d="M1.5 15C1.0875 15 0.7345 14.8533 0.441 14.5597C0.1475 14.2662 0.0005 13.913 0 13.5V4.5C0 4.0875 0.147 3.7345 0.441 3.441C0.735 3.1475 1.088 3.0005 1.5 3H4.5V1.5C4.5 1.0875 4.647 0.7345 4.941 0.441C5.235 0.1475 5.588 0.0005 6 0H9C9.4125 0 9.76575 0.147 10.0597 0.441C10.3538 0.735 10.5005 1.088 10.5 1.5V3H13.5C13.9125 3 14.2657 3.147 14.5597 3.441C14.8538 3.735 15.0005 4.088 15 4.5V13.5C15 13.9125 14.8533 14.2657 14.5597 14.5597C14.2662 14.8538 13.913 15.0005 13.5 15H1.5ZM1.5 13.5H13.5V4.5H1.5V13.5ZM6 3H9V1.5H6V3ZM6.75 9.75V12H8.25V9.75H10.5V8.25H8.25V6H6.75V8.25H4.5V9.75H6.75Z" fill="black"/>
</svg>
