<svg width="50" height="50" viewBox="0 0 50 50" fill="none" xmlns="http://www.w3.org/2000/svg">
<rect x="0.5" y="0.5" width="49" height="49" rx="24.5" fill="#FEFEFE" stroke="#FFF0E6"/>
<g clip-path="url(#clip0_339_3424)">
<path d="M32.6037 25.8865L28.1697 21.459L21.5527 28.27L25.8947 32.6125L25.8952 32.612C26.3356 33.0527 26.8587 33.4022 27.4344 33.6403C28.0101 33.8785 28.6272 34.0007 29.2502 34C31.8732 34 34.0002 31.873 34.0002 29.25C34.001 28.6249 33.878 28.0059 33.6383 27.4286C33.3986 26.8513 33.047 26.3272 32.6037 25.8865Z" fill="#BB1A34"/>
<path d="M23.9605 17.2565C23.0868 16.4483 21.9402 15.9995 20.75 16C19.4902 16 18.282 16.5004 17.3912 17.3912C16.5004 18.282 16 19.4902 16 20.75C16 21.9895 16.479 23.115 17.257 23.9605L17.25 23.9675L21.5525 28.27L28.1695 21.459L23.9605 17.2565Z" fill="#FDCB58"/>
</g>
<defs>
<clipPath id="clip0_339_3424">
<rect width="18" height="18" fill="white" transform="translate(16 16)"/>
</clipPath>
</defs>
</svg>
