<svg width="24" height="24" viewBox="0 0 24 24" fill="none" xmlns="http://www.w3.org/2000/svg">
<path d="M1.71428 12C1.71428 6.31972 6.31971 1.71429 12 1.71429C17.6803 1.71429 22.2857 6.31972 22.2857 12C22.2857 17.6803 17.6803 22.2857 12 22.2857C10.315 22.2881 8.65535 21.8748 7.16828 21.0823L3.07971 22.2454C2.89618 22.2976 2.70205 22.2998 2.51739 22.2518C2.33273 22.2038 2.16423 22.1073 2.02932 21.9724C1.8944 21.8375 1.79796 21.669 1.74996 21.4843C1.70196 21.2997 1.70414 21.1055 1.75628 20.922L2.91857 16.8334C2.12553 15.3459 1.71187 13.6857 1.71428 12ZM8.14285 10.0714C8.14285 10.4263 8.43085 10.7143 8.78571 10.7143H15.2143C15.3848 10.7143 15.5483 10.6466 15.6688 10.526C15.7894 10.4054 15.8571 10.2419 15.8571 10.0714C15.8571 9.90094 15.7894 9.73743 15.6688 9.61687C15.5483 9.49631 15.3848 9.42858 15.2143 9.42858H8.78571C8.61521 9.42858 8.4517 9.49631 8.33114 9.61687C8.21058 9.73743 8.14285 9.90094 8.14285 10.0714ZM8.78571 13.2857C8.61521 13.2857 8.4517 13.3535 8.33114 13.474C8.21058 13.5946 8.14285 13.7581 8.14285 13.9286C8.14285 14.0991 8.21058 14.2626 8.33114 14.3831C8.4517 14.5037 8.61521 14.5714 8.78571 14.5714H12.6429C12.8133 14.5714 12.9769 14.5037 13.0974 14.3831C13.218 14.2626 13.2857 14.0991 13.2857 13.9286C13.2857 13.7581 13.218 13.5946 13.0974 13.474C12.9769 13.3535 12.8133 13.2857 12.6429 13.2857H8.78571Z" fill="#E0712D"/>
</svg>
