<svg width="15" height="15" viewBox="0 0 15 15" fill="none" xmlns="http://www.w3.org/2000/svg">
<path d="M1.66667 13.3333H2.85417L11 5.1875L9.8125 4L1.66667 12.1458V13.3333ZM0 15V11.4583L11 0.479167C11.1667 0.326389 11.3508 0.208333 11.5525 0.125C11.7542 0.0416667 11.9658 0 12.1875 0C12.4092 0 12.6244 0.0416667 12.8333 0.125C13.0422 0.208333 13.2228 0.333333 13.375 0.5L14.5208 1.66667C14.6875 1.81944 14.8092 2 14.8858 2.20833C14.9625 2.41667 15.0006 2.625 15 2.83333C15 3.05556 14.9619 3.2675 14.8858 3.46917C14.8097 3.67083 14.6881 3.85472 14.5208 4.02083L3.54167 15H0ZM10.3958 4.60417L9.8125 4L11 5.1875L10.3958 4.60417Z" fill="#E0712D"/>
</svg>
