<svg width="50" height="50" viewBox="0 0 50 50" fill="none" xmlns="http://www.w3.org/2000/svg">
<path d="M25 0.5C38.531 0.5 49.5 11.469 49.5 25C49.5 38.531 38.531 49.5 25 49.5C11.469 49.5 0.5 38.531 0.5 25C0.500026 11.469 11.469 0.500026 25 0.5Z" fill="#FEFEFE" stroke="#FFF0E6"/>
<path d="M30.7381 17.1099V35.7624C30.7377 36.5632 30.5698 37.3551 30.2451 38.0871C29.9204 38.8192 29.4462 39.4752 28.8528 40.013C28.2595 40.5508 27.5602 40.9585 26.7999 41.21C26.0396 41.4614 25.2351 41.5509 24.4381 41.4729C22.9922 41.294 21.6635 40.5869 20.7074 39.4877C19.7514 38.3884 19.2353 36.9746 19.2586 35.5179V17.1084L30.7381 17.1099Z" fill="#C9F7CA"/>
<path d="M24.4396 34.2985C22.9933 34.1202 21.6641 33.4134 20.7076 32.3141C19.7512 31.2147 19.2351 29.8005 19.2586 28.3435V35.518C19.2354 36.9749 19.7516 38.389 20.708 39.4883C21.6644 40.5875 22.9935 41.2944 24.4396 41.473C25.2363 41.5501 26.0404 41.4599 26.8002 41.2081C27.56 40.9563 28.2589 40.5485 28.8519 40.0109C29.4449 39.4732 29.919 38.8176 30.2438 38.086C30.5687 37.3544 30.737 36.563 30.7381 35.7625V28.588C30.7377 29.3888 30.5698 30.1807 30.2451 30.9127C29.9204 31.6448 29.4462 32.3008 28.8529 32.8386C28.2595 33.3764 27.5602 33.7841 26.7999 34.0356C26.0396 34.287 25.2366 34.3766 24.4396 34.2985Z" fill="#78EB7B"/>
<path d="M23.5649 28.5881C23.7572 28.5943 23.9488 28.5618 24.1283 28.4925C24.3078 28.4232 24.4716 28.3185 24.6098 28.1846C24.748 28.0508 24.858 27.8905 24.933 27.7133C25.0081 27.5362 25.0468 27.3457 25.0468 27.1533C25.0468 26.9609 25.0081 26.7704 24.933 26.5933C24.858 26.4161 24.748 26.2558 24.6098 26.122C24.4716 25.9881 24.3078 25.8834 24.1283 25.8141C23.9488 25.7448 23.7572 25.7123 23.5649 25.7186C23.1924 25.7306 22.8392 25.887 22.58 26.1548C22.3207 26.4225 22.1758 26.7806 22.1758 27.1533C22.1758 27.526 22.3207 27.8841 22.58 28.1518C22.8392 28.4196 23.1924 28.576 23.5649 28.5881ZM26.4344 23.5661C26.6267 23.5723 26.8183 23.5398 26.9978 23.4705C27.1773 23.4012 27.3411 23.2965 27.4793 23.1626C27.6175 23.0288 27.7275 22.8685 27.8025 22.6913C27.8776 22.5142 27.9163 22.3237 27.9163 22.1313C27.9163 21.9389 27.8776 21.7484 27.8025 21.5713C27.7275 21.3941 27.6175 21.2338 27.4793 21.1C27.3411 20.9661 27.1773 20.8614 26.9978 20.7921C26.8183 20.7228 26.6267 20.6903 26.4344 20.6966C26.0619 20.7086 25.7087 20.865 25.4495 21.1328C25.1902 21.4005 25.0453 21.7586 25.0453 22.1313C25.0453 22.504 25.1902 22.8621 25.4495 23.1298C25.7087 23.3976 26.0619 23.554 26.4344 23.5661ZM24.9989 36.4796C25.1912 36.4858 25.3828 36.4533 25.5623 36.384C25.7418 36.3147 25.9056 36.21 26.0438 36.0761C26.182 35.9423 26.292 35.782 26.367 35.6048C26.4421 35.4277 26.4808 35.2372 26.4808 35.0448C26.4808 34.8524 26.4421 34.6619 26.367 34.4848C26.292 34.3076 26.182 34.1473 26.0438 34.0135C25.9056 33.8796 25.7418 33.7749 25.5623 33.7056C25.3828 33.6363 25.1912 33.6038 24.9989 33.6101C24.6264 33.6221 24.2732 33.7785 24.014 34.0463C23.7547 34.314 23.6098 34.6721 23.6098 35.0448C23.6098 35.4175 23.7547 35.7756 24.014 36.0433C24.2732 36.3111 24.6264 36.4675 24.9989 36.4796Z" fill="#FFF9BF" stroke="#191919" stroke-linecap="round" stroke-linejoin="round"/>
<path d="M31.8157 9.46C31.1002 11.548 30.7363 13.7403 30.7387 15.9475V17.1085H19.2607V15.9475C19.2628 13.7408 18.8989 11.5491 18.1837 9.4615C18.1447 9.35431 18.132 9.23939 18.1464 9.12627C18.1608 9.01316 18.202 8.90511 18.2665 8.81109C18.331 8.71708 18.4171 8.63981 18.5174 8.58571C18.6178 8.53161 18.7296 8.50222 18.8437 8.5H31.1557C31.2695 8.5023 31.3811 8.53168 31.4813 8.5857C31.5816 8.63972 31.6675 8.71683 31.732 8.81065C31.7965 8.90447 31.8377 9.0123 31.8523 9.12522C31.8668 9.23814 31.8543 9.35289 31.8157 9.46Z" fill="#C2F3FF" stroke="#191919" stroke-linecap="round" stroke-linejoin="round"/>
<path d="M30.7381 17.1099V35.7624C30.7377 36.5632 30.5698 37.3551 30.2451 38.0871C29.9204 38.8192 29.4462 39.4752 28.8528 40.013C28.2595 40.5508 27.5602 40.9585 26.7999 41.21C26.0396 41.4614 25.2351 41.5509 24.4381 41.4729C22.9922 41.294 21.6635 40.5869 20.7074 39.4877C19.7514 38.3884 19.2353 36.9746 19.2586 35.5179V17.1084L30.7381 17.1099Z" stroke="#191919" stroke-linecap="round" stroke-linejoin="round"/>
</svg>
