<svg width="32" height="32" viewBox="0 0 32 32" fill="none" xmlns="http://www.w3.org/2000/svg">
<path d="M18.425 1.66061L14.875 3.77311L15.3625 4.59624L17.5625 3.28686L16.925 7.37499L17.3188 8.03749L21 5.84561L20.5125 5.02249L18.1812 6.40624L18.8125 2.31999L18.425 1.66061ZM9.19375 3.78436C7.01594 4.99594 5.20102 6.76689 3.9364 8.91433C2.67178 11.0618 2.0033 13.5079 2 16C2 19.713 3.475 23.274 6.1005 25.8995C8.72601 28.525 12.287 30 16 30C19.027 29.9984 21.972 29.0158 24.3935 27.1994C26.815 25.383 28.5826 22.8306 29.4312 19.925C28.2185 21.2093 26.7568 22.2331 25.1353 22.9337C23.5137 23.6343 21.7664 23.9971 20 24C16.5522 24 13.2456 22.6304 10.8076 20.1924C8.36964 17.7544 7 14.4478 7 11C7.00219 8.43085 7.76557 5.91996 9.19375 3.78436ZM24.475 7.03749L24.0438 8.06874L26.8 9.21874L22.5312 11.4625L22.1875 12.2875L26.7938 14.2125L27.225 13.1812L24.3062 11.9625L28.575 9.71874L28.9188 8.89374L24.475 7.03749ZM17.2875 11.0375L11.175 13.225L11.6812 14.6437L15.4688 13.2875L13.2563 19.4062L13.6625 20.5375L20 18.275L19.4937 16.8562L15.4812 18.2937L17.6938 12.175L17.2875 11.0375Z" fill="#E0712D"/>
</svg>
