<svg width="50" height="50" viewBox="0 0 50 50" fill="none" xmlns="http://www.w3.org/2000/svg">
<rect x="0.5" y="0.5" width="49" height="49" rx="24.5" fill="#FEFEFE" stroke="#FFF0E6"/>
<path d="M22.5703 14.5904C22.5703 15.1741 22.8022 15.7339 23.2149 16.1466C23.6276 16.5593 24.1874 16.7912 24.7711 16.7912C25.3548 16.7912 25.9146 16.5593 26.3273 16.1466C26.74 15.7339 26.9719 15.1741 26.9719 14.5904C26.9719 14.0067 26.74 13.447 26.3273 13.0342C25.9146 12.6215 25.3548 12.3896 24.7711 12.3896C24.1874 12.3896 23.6276 12.6215 23.2149 13.0342C22.8022 13.447 22.5703 14.0067 22.5703 14.5904Z" fill="#FFB89A"/>
<path d="M34.8917 30.2102C34.3221 29.0817 34.1042 28.0024 34.0233 27.4575C34.0022 27.3133 33.9917 27.1657 33.9882 27.018L33.946 22.6411V22.511C33.946 22.409 33.9425 22.3036 33.9389 22.2016L33.9354 21.7024H33.9073C33.8335 20.9184 33.6542 20.1485 33.3729 19.4102C33.0073 18.454 32.4764 17.5645 31.7944 16.7665C30.6132 15.3848 29.0171 14.3407 27.2382 13.7747C26.978 11.8903 25.4979 10.4454 23.7155 10.4454C21.8628 10.4454 20.337 12.0098 20.1682 13.9997C18.53 14.6395 17.1132 15.6731 16.0409 17.0196C14.9405 18.4012 14.2901 20.0044 14.1319 21.7024H14.1003V27.236C14.0968 27.2922 14.0335 28.1993 12.7784 30.0169C12.2968 30.7129 11.1331 32.4813 10.8589 32.8962C10.4792 33.318 10.3632 33.9087 10.5706 34.4501C10.7956 35.0477 11.3546 35.4344 11.9944 35.4344H35.4366C36.0729 35.4344 36.6319 35.0512 36.8604 34.4536C37.0678 33.9122 36.9553 33.3215 36.5757 32.8997C36.0132 32.0489 35.1061 30.6321 34.8917 30.2102ZM13.1018 33.3286C13.5624 32.6325 14.1987 31.6692 14.5151 31.2157C15.1022 30.3649 15.5452 29.5633 15.837 28.8321C16.0725 28.2379 16.2026 27.7001 16.2096 27.2712V27.2536V27.1692V27.0672V27.0567L16.2202 26.0055H16.2061V23.8118H16.2448L16.2096 22.7219C16.2061 22.6411 16.2061 22.5708 16.2061 22.5075C16.2061 20.9958 16.7194 19.5508 17.6932 18.3309C18.66 17.118 19.9889 16.2251 21.5393 15.754L22.3796 15.4973L22.2776 14.6254C22.2671 14.5376 22.2635 14.4497 22.2635 14.3688C22.2635 13.3704 22.9139 12.5547 23.7155 12.5547C24.5171 12.5547 25.1675 13.3669 25.1675 14.3688C25.1675 14.411 25.1639 14.4567 25.1604 14.5165L25.1007 15.4094L25.9725 15.6133C27.6319 16.0036 29.1296 16.9001 30.1913 18.1411C31.2671 19.3997 31.8366 20.9114 31.8366 22.511C31.8366 22.5743 31.8366 22.6446 31.8331 22.7254L31.7979 23.8153H31.8471L31.8788 27.0391C31.8823 27.2817 31.8999 27.5278 31.935 27.7669C32.0335 28.4383 32.3042 29.7708 33.0073 31.1629C33.2288 31.5989 33.8651 32.6008 34.3327 33.3286H13.1018ZM31.362 15.1036C32.2971 15.4024 33.2956 16.3692 33.9635 17.6278C34.2343 18.1376 34.4346 18.6614 34.5612 19.1817C34.6772 19.6633 35.1096 19.9868 35.5842 19.9868C35.6651 19.9868 35.7495 19.9762 35.8339 19.9551C36.3999 19.818 36.7479 19.2485 36.6108 18.6825C36.4421 17.9899 36.1784 17.3008 35.8233 16.6364C34.8917 14.8821 33.4608 13.5567 31.9983 13.0926C31.4428 12.9169 30.8487 13.2227 30.6729 13.7782C30.4971 14.3337 30.8065 14.9278 31.362 15.1036ZM39.6307 17.4309C39.3425 16.3797 38.8503 15.2969 38.2104 14.295C37.11 12.5758 35.6194 11.1977 34.1253 10.5122C33.5944 10.2696 32.9686 10.5016 32.726 11.0325C32.4835 11.5633 32.7155 12.1891 33.2464 12.4317C34.3819 12.952 35.5456 14.0454 36.435 15.434C36.9624 16.2567 37.3632 17.1391 37.5987 17.9899C37.7288 18.4575 38.1507 18.7669 38.6147 18.7669C38.7061 18.7669 38.801 18.7563 38.896 18.7282C39.455 18.5735 39.7854 17.9899 39.6307 17.4309Z" fill="#45484C"/>
<path d="M26.5406 35.5503C25.957 35.5503 25.4859 36.0214 25.4859 36.605C25.4859 36.9038 25.4402 37.1956 25.3523 37.4698C25.173 38.0253 25.4754 38.6194 26.0273 38.7987C26.1363 38.8339 26.2453 38.8515 26.3543 38.8515C26.7973 38.8515 27.2121 38.5702 27.3562 38.1237C27.5145 37.6386 27.5953 37.1253 27.5953 36.605C27.5953 36.0249 27.1207 35.5503 26.5406 35.5503ZM23.7176 38.8726C23.2781 38.8726 22.8562 38.6581 22.5258 38.2714C22.1531 37.8355 21.9492 37.2413 21.9492 36.605C21.9492 36.0214 21.4781 35.5503 20.8945 35.5503C20.3109 35.5503 19.8398 36.0214 19.8398 36.605C19.8398 37.744 20.223 38.8198 20.9156 39.6354C21.6539 40.5038 22.6453 40.9819 23.7141 40.9819C24.2977 40.9819 24.7687 40.5108 24.7687 39.9272C24.7687 39.3437 24.3012 38.8726 23.7176 38.8726Z" fill="#33CC99"/>
</svg>
