<svg width="24" height="24" viewBox="0 0 24 24" fill="none" xmlns="http://www.w3.org/2000/svg">
<path d="M12.0007 2C10.1441 2 8.36367 2.7375 7.05092 4.05025C5.73816 5.36301 5.00066 7.14348 5.00066 9V12.528C5.00081 12.6831 4.96486 12.8362 4.89566 12.975L3.17866 16.408C3.09479 16.5757 3.05518 16.7621 3.06361 16.9494C3.07204 17.1368 3.12822 17.3188 3.22681 17.4783C3.3254 17.6379 3.46314 17.7695 3.62693 17.8608C3.79072 17.9521 3.97514 18 4.16266 18H19.8387C20.0262 18 20.2106 17.9521 20.3744 17.8608C20.5382 17.7695 20.6759 17.6379 20.7745 17.4783C20.8731 17.3188 20.9293 17.1368 20.9377 16.9494C20.9461 16.7621 20.9065 16.5757 20.8227 16.408L19.1067 12.975C19.0371 12.8362 19.0008 12.6832 19.0007 12.528V9C19.0007 7.14348 18.2632 5.36301 16.9504 4.05025C15.6377 2.7375 13.8572 2 12.0007 2ZM12.0007 21C11.38 21.0003 10.7745 20.8081 10.2677 20.4499C9.76083 20.0917 9.37755 19.5852 9.17066 19H14.8307C14.6238 19.5852 14.2405 20.0917 13.7336 20.4499C13.2268 20.8081 12.6213 21.0003 12.0007 21Z" fill="#E0712D"/>
<circle cx="17.5" cy="5.5" r="2.5" fill="#E43A3A" stroke="white"/>
</svg>
