<svg width="58" height="58" viewBox="0 0 58 58" fill="none" xmlns="http://www.w3.org/2000/svg">
<g filter="url(#filter0_d_339_4563)">
<rect x="4" width="50" height="50" rx="25" fill="#FFF0E6" shape-rendering="crispEdges"/>
<rect x="4.5" y="0.5" width="49" height="49" rx="24.5" stroke="#FFF0E6" shape-rendering="crispEdges"/>
<path opacity="0.15" d="M19.3125 36.1063C19.3125 36.4411 20.3331 36.7622 22.1499 36.999C23.9667 37.2357 26.4307 37.3688 29 37.3688C31.5693 37.3688 34.0333 37.2357 35.8501 36.999C37.6669 36.7622 38.6875 36.4411 38.6875 36.1063C38.6875 35.7714 37.6669 35.4503 35.8501 35.2135C34.0333 34.9768 31.5693 34.8438 29 34.8438C26.4307 34.8438 23.9667 34.9768 22.1499 35.2135C20.3331 35.4503 19.3125 35.7714 19.3125 36.1063Z" fill="#45413C"/>
<path d="M19.0567 34.3001C18.4908 33.7342 18.0418 33.0624 17.7355 32.323C17.4291 31.5836 17.2715 30.7911 17.2715 29.9907C17.2715 29.1904 17.4291 28.3979 17.7355 27.6585C18.0418 26.9191 18.4908 26.2472 19.0567 25.6814L30.3067 14.4314C31.4472 13.286 32.9959 12.6405 34.6122 12.637C36.2286 12.6335 37.7801 13.2722 38.9255 14.4126C40.0709 15.553 40.7164 17.1018 40.7199 18.7181C40.7234 20.3344 40.0847 21.8859 38.9443 23.0314L27.6942 34.2814C27.1293 34.8514 26.4572 35.3042 25.7168 35.6138C24.9763 35.9234 24.182 36.0836 23.3794 36.0854C22.5768 36.0871 21.7818 35.9303 21.04 35.6239C20.2982 35.3176 19.6242 34.8677 19.0567 34.3001Z" fill="#FF6242"/>
<path d="M21.7056 28.3375L32.9556 17.0875C33.8675 16.1705 35.0466 15.5664 36.3236 15.362C37.6005 15.1576 38.9093 15.3635 40.0618 15.95C39.7704 15.3829 39.393 14.8643 38.9431 14.4125C38.3772 13.8465 37.7054 13.3975 36.966 13.0912C36.2266 12.7849 35.434 12.6272 34.6337 12.6272C33.8334 12.6272 33.0408 12.7849 32.3014 13.0912C31.562 13.3975 30.8902 13.8465 30.3243 14.4125L19.0743 25.6625C18.5083 26.2283 18.0594 26.9002 17.753 27.6396C17.4467 28.379 17.2891 29.1715 17.2891 29.9718C17.2891 30.7722 17.4467 31.5647 17.753 32.3041C18.0594 33.0435 18.5083 33.7153 19.0743 34.2812C19.5261 34.7311 20.0447 35.1085 20.6118 35.4C20.0273 34.2575 19.8183 32.9597 20.0147 31.6915C20.2111 30.4234 20.8028 29.2495 21.7056 28.3375Z" fill="#FF866E"/>
<path d="M30.3242 14.4125L24.6992 20.0375L33.3055 28.6688L38.9305 23.0438C40.075 21.9025 40.7194 20.3533 40.7217 18.737C40.7241 17.1207 40.0842 15.5696 38.943 14.425C37.8017 13.2805 36.2525 12.6361 34.6362 12.6338C33.0199 12.6315 31.4688 13.2713 30.3242 14.4125Z" fill="#00B8F0"/>
<path d="M40.0617 15.95C39.7702 15.3829 39.3929 14.8643 38.943 14.4125C38.3771 13.8465 37.7053 13.3975 36.9659 13.0912C36.2264 12.7849 35.4339 12.6272 34.6336 12.6272C33.8332 12.6272 33.0407 12.7849 32.3013 13.0912C31.5619 13.3975 30.8901 13.8465 30.3242 14.4125L24.6992 20.0375L27.3492 22.6875L32.9742 17.0625C33.8876 16.1537 35.0647 15.5568 36.3376 15.357C37.6104 15.1572 38.9139 15.3648 40.0617 15.95Z" fill="#4ACFFF"/>
<path d="M38.9444 14.4125C39.5104 14.9784 39.9594 15.6502 40.2657 16.3896C40.572 17.129 40.7297 17.9215 40.7297 18.7219C40.7297 19.5222 40.572 20.3147 40.2657 21.0541C39.9594 21.7936 39.5104 22.4654 38.9444 23.0313L27.6944 34.2812C26.554 35.4267 25.0052 36.0721 23.3889 36.0756C21.7726 36.0791 20.221 35.4404 19.0756 34.3C17.9302 33.1596 17.2848 31.6108 17.2813 29.9945C17.2777 28.3782 17.9165 26.8267 19.0569 25.6812L30.3069 14.4313C30.8719 13.8612 31.5439 13.4084 32.2844 13.0988C33.0248 12.7892 33.8192 12.629 34.6217 12.6272C35.4243 12.6255 36.2194 12.7823 36.9612 13.0887C37.703 13.395 38.3769 13.8449 38.9444 14.4125Z" stroke="#45413C" stroke-width="0.5" stroke-linecap="round" stroke-linejoin="round"/>
<path d="M30.3242 14.4125L24.6992 20.0375L33.3055 28.6688L38.9305 23.0438C40.075 21.9025 40.7194 20.3533 40.7217 18.737C40.7241 17.1207 40.0842 15.5696 38.943 14.425C37.8017 13.2805 36.2525 12.6361 34.6362 12.6338C33.0199 12.6315 31.4688 13.2713 30.3242 14.4125Z" stroke="#45413C" stroke-width="0.5" stroke-linecap="round" stroke-linejoin="round"/>
</g>
<defs>
<filter id="filter0_d_339_4563" x="0" y="0" width="58" height="58" filterUnits="userSpaceOnUse" color-interpolation-filters="sRGB">
<feFlood flood-opacity="0" result="BackgroundImageFix"/>
<feColorMatrix in="SourceAlpha" type="matrix" values="0 0 0 0 0 0 0 0 0 0 0 0 0 0 0 0 0 0 127 0" result="hardAlpha"/>
<feOffset dy="4"/>
<feGaussianBlur stdDeviation="2"/>
<feComposite in2="hardAlpha" operator="out"/>
<feColorMatrix type="matrix" values="0 0 0 0 0.923077 0 0 0 0 0.859782 0 0 0 0 0.821006 0 0 0 1 0"/>
<feBlend mode="normal" in2="BackgroundImageFix" result="effect1_dropShadow_339_4563"/>
<feBlend mode="normal" in="SourceGraphic" in2="effect1_dropShadow_339_4563" result="shape"/>
</filter>
</defs>
</svg>
