<svg width="32" height="32" viewBox="0 0 32 32" fill="none" xmlns="http://www.w3.org/2000/svg">
<rect width="32" height="32" rx="10" fill="#FFF0E6"/>
<path d="M26.1937 7.65669C26.1937 7.65669 26.1937 7.66607 26.1937 7.67075L20.7374 25.6651C20.6548 25.9574 20.4848 26.2174 20.2502 26.4103C20.0156 26.6032 19.7276 26.7197 19.4249 26.7442C19.3818 26.7479 19.3387 26.7498 19.2955 26.7498C19.0119 26.7507 18.7338 26.6704 18.4943 26.5184C18.2548 26.3664 18.0637 26.1491 17.9437 25.892L14.5312 18.8889C14.497 18.8187 14.4856 18.7396 14.4986 18.6626C14.5115 18.5857 14.5481 18.5147 14.6034 18.4595L20.0334 13.0295C20.1681 12.8877 20.2421 12.6989 20.2396 12.5033C20.2371 12.3078 20.1583 12.1209 20.02 11.9826C19.8817 11.8443 19.6948 11.7655 19.4992 11.763C19.3037 11.7605 19.1148 11.8345 18.973 11.9692L13.5402 17.3992C13.4851 17.4544 13.4141 17.491 13.3371 17.504C13.2601 17.5169 13.181 17.5055 13.1109 17.4714L6.10117 14.0598C5.82707 13.9283 5.59939 13.7166 5.44831 13.4528C5.29724 13.189 5.2299 12.8855 5.25521 12.5825C5.28052 12.2795 5.3973 11.9914 5.59007 11.7563C5.78283 11.5212 6.04248 11.3503 6.33461 11.2661L24.329 5.80982H24.343C24.5993 5.73784 24.87 5.73531 25.1275 5.80251C25.385 5.8697 25.62 6.00419 25.8083 6.19217C25.9967 6.38016 26.1317 6.61487 26.1994 6.87224C26.2671 7.1296 26.2651 7.40034 26.1937 7.65669Z" fill="#E0712D"/>
</svg>
