<svg width="24" height="24" viewBox="0 0 24 24" fill="none" xmlns="http://www.w3.org/2000/svg">
<rect x="3" y="3" width="18" height="18" rx="9" stroke="#EBF2F3"/>
<path d="M20.3125 12.647L20.8295 10.715C21.4335 8.45997 21.7365 7.33297 21.5095 6.35697C21.3295 5.58646 20.9252 4.88662 20.3475 4.34597C19.6165 3.66097 18.4885 3.35897 16.2335 2.75497C13.9785 2.14997 12.8505 1.84797 11.8755 2.07497C11.105 2.25488 10.4051 2.65927 9.86446 3.23697C9.27746 3.86297 8.97146 4.77997 8.51646 6.44597L8.27246 7.35097L7.75546 9.28297C7.15046 11.538 6.84846 12.665 7.07546 13.641C7.25537 14.4115 7.65975 15.1113 8.23746 15.652C8.96846 16.337 10.0965 16.639 12.3515 17.244C14.3835 17.788 15.5005 18.087 16.4155 17.974C16.5155 17.9613 16.6135 17.944 16.7095 17.922C17.4797 17.7426 18.1795 17.3389 18.7205 16.762C19.4055 16.03 19.7075 14.902 20.3125 12.647Z" stroke="black" stroke-width="1.5"/>
<path d="M16.4155 17.9738C16.2064 18.6142 15.8391 19.1913 15.3475 19.6518C14.6165 20.3368 13.4885 20.6388 11.2335 21.2428C8.97846 21.8468 7.85046 22.1498 6.87546 21.9218C6.10507 21.7422 5.40524 21.3382 4.86446 20.7608C4.17946 20.0298 3.87646 18.9018 3.27246 16.6468L2.75546 14.7148C2.15046 12.4598 1.84846 11.3318 2.07546 10.3568C2.25537 9.58632 2.65975 8.88648 3.23746 8.34582C3.96846 7.66082 5.09646 7.35882 7.35146 6.75382C7.77679 6.63916 8.16512 6.53616 8.51646 6.44482" stroke="black" stroke-width="1.5"/>
<path d="M11.777 10L16.607 11.294M11 12.898L13.898 13.674" stroke="black" stroke-width="1.5" stroke-linecap="round"/>
</svg>
