<svg width="50" height="50" viewBox="0 0 50 50" fill="none" xmlns="http://www.w3.org/2000/svg">
<rect x="0.5" y="0.5" width="49" height="49" rx="24.5" fill="#FEFEFE" stroke="#FFF0E6"/>
<path d="M11 20.3329C10.9999 21.5586 11.2413 22.7723 11.7103 23.9048C12.1793 25.0372 12.8668 26.0662 13.7335 26.9329C14.6002 27.7996 15.6291 28.4872 16.7615 28.9563C17.8939 29.4253 19.1076 29.6668 20.3333 29.6668C21.559 29.6668 22.7728 29.4253 23.9052 28.9563C25.0376 28.4872 26.0665 27.7996 26.9332 26.9329C27.7999 26.0662 28.4874 25.0372 28.9564 23.9048C29.4254 22.7723 29.6667 21.5586 29.6667 20.3329C29.6667 19.1072 29.4254 17.8935 28.9564 16.761C28.4874 15.6286 27.7999 14.5996 26.9332 13.7329C26.0665 12.8661 25.0376 12.1786 23.9052 11.7095C22.7728 11.2405 21.559 10.999 20.3333 10.999C19.1076 10.999 17.8939 11.2405 16.7615 11.7095C15.6291 12.1786 14.6002 12.8661 13.7335 13.7329C12.8668 14.5996 12.1793 15.6286 11.7103 16.761C11.2413 17.8935 10.9999 19.1072 11 20.3329Z" fill="#00ACC1"/>
<path d="M13 20.3328C12.9999 21.2959 13.1896 22.2496 13.5581 23.1393C13.9266 24.0291 14.4667 24.8376 15.1477 25.5186C15.8287 26.1996 16.6371 26.7398 17.5269 27.1084C18.4166 27.477 19.3703 27.6666 20.3333 27.6666C21.2964 27.6666 22.25 27.477 23.1398 27.1084C24.0295 26.7398 24.838 26.1996 25.519 25.5186C26.1999 24.8376 26.7401 24.0291 27.1086 23.1393C27.4771 22.2496 27.6667 21.2959 27.6667 20.3328C27.6667 19.3698 27.4771 18.4161 27.1086 17.5263C26.7401 16.6366 26.1999 15.8281 25.519 15.1471C24.838 14.4661 24.0295 13.9259 23.1398 13.5573C22.25 13.1887 21.2964 12.999 20.3333 12.999C19.3703 12.999 18.4166 13.1887 17.5269 13.5573C16.6371 13.9259 15.8287 14.4661 15.1477 15.1471C14.4667 15.8281 13.9266 16.6366 13.5581 17.5263C13.1896 18.4161 12.9999 19.3698 13 20.3328Z" fill="#EEEEEE"/>
<path d="M19.666 14.3333H20.9993V20.3333H19.666V14.3333Z" fill="black"/>
<path d="M24.1042 22.9691L22.9729 24.1004L19.7676 20.8957L20.8989 19.7644L24.1042 22.9691Z" fill="black"/>
<path d="M19 20.3335C19 20.5087 19.0344 20.6821 19.1014 20.8438C19.1684 21.0056 19.2666 21.1526 19.3905 21.2765C19.5143 21.4003 19.6613 21.4985 19.823 21.5656C19.9848 21.6326 20.1582 21.6671 20.3333 21.6671C20.5084 21.6671 20.6818 21.6326 20.8436 21.5656C21.0054 21.4985 21.1524 21.4003 21.2762 21.2765C21.4 21.1526 21.4982 21.0056 21.5652 20.8438C21.6322 20.6821 21.6667 20.5087 21.6667 20.3335C21.6667 20.1584 21.6322 19.985 21.5652 19.8232C21.4982 19.6614 21.4 19.5144 21.2762 19.3906C21.1524 19.2668 21.0054 19.1685 20.8436 19.1015C20.6818 19.0345 20.5084 19 20.3333 19C20.1582 19 19.9848 19.0345 19.823 19.1015C19.6613 19.1685 19.5143 19.2668 19.3905 19.3906C19.2666 19.5144 19.1684 19.6614 19.1014 19.8232C19.0344 19.985 19 20.1584 19 20.3335Z" fill="black"/>
<path d="M19.666 20.3334C19.666 20.5102 19.7363 20.6798 19.8613 20.8048C19.9863 20.9298 20.1559 21.0001 20.3327 21.0001C20.5095 21.0001 20.6791 20.9298 20.8041 20.8048C20.9291 20.6798 20.9993 20.5102 20.9993 20.3334C20.9993 20.1566 20.9291 19.987 20.8041 19.862C20.6791 19.737 20.5095 19.6667 20.3327 19.6667C20.1559 19.6667 19.9863 19.737 19.8613 19.862C19.7363 19.987 19.666 20.1566 19.666 20.3334Z" fill="#00ACC1"/>
<path d="M16.9328 36.9996L26.5328 20.933C27.0661 20.0663 28.3328 20.0663 28.7995 20.933L38.3995 36.9996C38.9328 37.8663 38.2661 38.9996 37.2661 38.9996H18.0661C17.0661 38.9996 16.3995 37.8663 16.9328 36.9996Z" fill="#FFC107"/>
<path d="M26.6016 35.6C26.6016 35.4667 26.6016 35.3333 26.6682 35.2C26.7349 35.0667 26.8016 35 26.8682 34.8667C26.9349 34.7333 27.0682 34.7333 27.2016 34.6667C27.3349 34.6 27.4682 34.6 27.6016 34.6C27.7349 34.6 27.9349 34.6 28.0682 34.6667C28.2016 34.7333 28.3349 34.8 28.4016 34.8667C28.4682 34.9333 28.5349 35.0667 28.6016 35.2C28.6682 35.3333 28.6682 35.4667 28.6682 35.6C28.6682 35.7333 28.6682 35.8667 28.6016 36C28.5349 36.1333 28.4682 36.2 28.4016 36.3333C28.3349 36.4667 28.2016 36.4667 28.0682 36.5333C27.9349 36.6 27.8016 36.6 27.6016 36.6C27.4016 36.6 27.2682 36.6 27.2016 36.5333C27.1349 36.4667 26.9349 36.4 26.8682 36.3333C26.8016 36.2667 26.7349 36.1333 26.6682 36C26.6016 35.8667 26.6016 35.7333 26.6016 35.6ZM28.4682 33.5333H26.9349L26.6682 27H28.6682L28.4682 33.5333Z" fill="#263238"/>
</svg>
